<svg width="229" height="52" viewBox="0 0 229 52" fill="none" xmlns="http://www.w3.org/2000/svg">
<path d="M2.696 38.576L9.992 37.488L16.968 35.44L18.632 32.752L17.928 30L16.264 27.952C15.7947 27.6533 15.304 27.376 14.792 27.12C14.3227 26.8213 13.832 26.608 13.32 26.48C12.8507 26.3093 12.36 26.2453 11.848 26.288C11.3787 26.288 10.9093 26.4373 10.44 26.736L8.84 27.888L3.528 25.392L1.608 20.464L3.272 12.208L6.216 8.304C6.344 8.60266 6.6 8.70933 6.984 8.624C7.368 8.53866 7.752 8.368 8.136 8.112C8.52 7.856 8.84 7.55733 9.096 7.216C9.352 6.832 9.416 6.49067 9.288 6.192C10.0133 5.97866 10.8453 5.76533 11.784 5.552C12.7227 5.296 13.5333 4.93333 14.216 4.464L22.472 2.736L23.816 2.608L24.968 3.952L23.944 6.704L21.576 7.344L18.504 7.664L13.832 10.032L11.656 12.848C10.9733 13.488 10.632 14.192 10.632 14.96C10.6747 15.6853 10.8667 16.4747 11.208 17.328C11.6773 18.3093 12.0187 18.9493 12.232 19.248C12.488 19.504 12.808 19.7387 13.192 19.952L16.968 21.232C17.3947 21.5733 17.7787 21.8507 18.12 22.064C18.504 22.2347 18.9307 22.3413 19.4 22.384C19.8693 22.4267 20.5307 22.4693 21.384 22.512C22.28 22.5547 23.4107 22.6187 24.776 22.704C25.16 23.4293 25.608 24.0693 26.12 24.624C26.632 25.136 27.1227 25.8187 27.592 26.672L28.872 29.552L26.952 35.952L25.416 37.616L22.28 42.16H20.68C20.1253 42.16 19.4427 42.1813 18.632 42.224C17.864 42.224 16.9467 42.224 15.88 42.224C14.8133 42.224 13.8747 42.3307 13.064 42.544C12.2533 42.7573 11.528 42.992 10.888 43.248C10.248 43.4613 9.69333 43.6533 9.224 43.824C8.75467 43.9947 8.328 44.0587 7.944 44.016L5.64 43.312L1.8 43.952L0.456 41.2L0.84 39.6L2.696 38.576ZM42.8875 45.552C42.5888 45.552 42.0555 45.5947 41.2875 45.68C40.5622 45.7227 40.0288 45.744 39.6875 45.744L38.2795 45.872L37.1915 45.104C37.1488 44.464 37.1915 43.7173 37.3195 42.864C37.4902 42.0107 37.5755 41.3493 37.5755 40.88C38.0875 40.88 38.1942 40.368 37.8955 39.344C37.5542 38.32 37.4262 37.5093 37.5115 36.912C37.5542 36.2293 37.6608 35.6533 37.8315 35.184C38.0022 34.672 38.0235 34.3093 37.8955 34.096C37.8102 33.84 37.7035 33.5627 37.5755 33.264C37.4475 32.9227 37.3408 32.5387 37.2555 32.112L38.0235 27.952C38.1942 27.312 38.3008 26.608 38.3435 25.84C38.3862 25.072 38.4075 24.304 38.4075 23.536C38.4502 22.7253 38.5142 21.936 38.5995 21.168C38.6848 20.3573 38.8555 19.5893 39.1115 18.864L39.1755 17.2C39.2182 17.0293 39.3248 16.8587 39.4955 16.688C39.6662 16.5173 39.8155 16.368 39.9435 16.24C40.1142 16.0693 40.2422 15.92 40.3275 15.792C40.4555 15.6213 40.4555 15.4293 40.3275 15.216C40.4128 14.7467 40.2635 14.3413 39.8795 14C39.5382 13.6587 39.1542 13.4667 38.7275 13.424C38.8982 13.1253 39.0262 12.6133 39.1115 11.888C39.2395 11.12 39.3248 10.2667 39.3675 9.328C39.4528 8.38933 39.4955 7.408 39.4955 6.384C39.5382 5.36 39.5595 4.42133 39.5595 3.568L40.9035 2.864C41.6288 2.90666 42.3115 3.03466 42.9515 3.248C43.6342 3.41866 44.4662 3.61066 45.4475 3.824C45.9595 3.90933 46.4075 3.99467 46.7915 4.08C47.1755 4.12266 47.5168 4.18666 47.8155 4.272L48.7115 5.488C48.7115 5.53067 48.6902 5.63733 48.6475 5.808C48.6475 5.97867 48.6262 6.14933 48.5835 6.32C48.5835 6.49066 48.5622 6.66133 48.5195 6.832C48.5195 6.96 48.4982 7.024 48.4555 7.024C48.1995 6.98133 48.0928 7.36533 48.1355 8.176V14.576C47.8795 14.832 47.6662 15.1733 47.4955 15.6C47.3248 15.984 47.1755 16.432 47.0475 16.944C46.9195 17.456 46.7915 17.9893 46.6635 18.544C46.5782 19.056 46.4928 19.5467 46.4075 20.016C47.1755 20.6987 47.8368 20.912 48.3915 20.656C48.9888 20.4 49.3942 19.9947 49.6075 19.44L53.3835 19.696H55.8155L56.9035 20.08C57.9275 20.4213 58.8448 20.784 59.6555 21.168C60.5088 21.552 61.2768 21.8507 61.9595 22.064L63.1115 24.88L63.0475 25.648C63.0048 25.6907 63.1115 26.224 63.3675 27.248C63.6235 28.2293 63.7088 29.744 63.6235 31.792C63.5382 33.84 63.4742 35.76 63.4315 37.552C63.3888 39.344 63.3675 40.5813 63.3675 41.264C63.3675 41.3067 63.4102 41.4773 63.4955 41.776C63.6235 42.0747 63.7942 42.3947 64.0075 42.736L63.5595 43.44L62.3435 44.016C61.7462 44.0587 61.0848 44.1653 60.3595 44.336C59.6768 44.5067 59.0368 44.592 58.4395 44.592C58.1835 44.592 57.9702 44.5067 57.7995 44.336C57.6288 44.1227 57.2448 44.0373 56.6475 44.08L55.7515 43.312C55.8368 42.7573 55.8582 42.3093 55.8155 41.968C55.7728 41.584 55.7088 41.264 55.6235 41.008C55.5382 40.7093 55.4528 40.4533 55.3675 40.24C55.2822 40.0267 55.2395 39.8133 55.2395 39.6C55.2822 39.3013 55.3035 39.024 55.3035 38.768C55.3462 38.4693 55.3888 38.1493 55.4315 37.808C55.5168 37.2533 55.6022 36.6347 55.6875 35.952C55.8155 35.2693 55.9648 34.5227 56.1355 33.712C56.3062 32.7307 56.3488 31.856 56.2635 31.088C56.2208 30.2773 56.2422 29.5093 56.3275 28.784L54.0875 24.24C53.9168 24.1973 53.7462 24.1547 53.5755 24.112C53.4048 24.0693 53.2128 24.0053 52.9995 23.92C52.3168 23.7493 51.7408 23.7067 51.2715 23.792C50.8022 23.8347 50.3542 23.8773 49.9275 23.92C49.9275 24.048 49.6928 23.9413 49.2235 23.6C48.7968 23.216 48.4342 22.8533 48.1355 22.512C47.4102 21.9147 46.8768 21.808 46.5355 22.192C46.2368 22.5333 45.9808 23.0027 45.7675 23.6C45.8102 24.0693 45.8742 24.3893 45.9595 24.56C46.0875 24.7307 46.2155 24.8587 46.3435 24.944C46.5142 24.9867 46.6635 24.9867 46.7915 24.944C46.5782 25.1147 46.4075 25.4347 46.2795 25.904C46.1515 26.3307 46.0448 26.8213 45.9595 27.376C45.9168 27.888 45.8955 28.4427 45.8955 29.04C45.9382 29.5947 46.0022 30.1067 46.0875 30.576C46.1728 31.088 46.1088 31.8773 45.8955 32.944C45.7248 34.0107 45.6822 35.376 45.7675 37.04C45.7675 37.68 45.7462 38.3627 45.7035 39.088C45.6608 39.7707 45.6182 40.4533 45.5755 41.136C45.5328 41.776 45.4902 42.3733 45.4475 42.928C45.4048 43.44 45.3835 43.8453 45.3835 44.144V44.336C44.5728 45.0187 43.7408 45.424 42.8875 45.552ZM102.447 41.072L93.487 42.16L91.631 39.152C91.631 38.5973 91.2043 38.6187 90.351 39.216C90.1377 39.344 89.9243 39.5573 89.711 39.856C89.4977 40.1547 89.2843 40.4533 89.071 40.752C88.943 40.9227 88.815 41.0933 88.687 41.264C88.559 41.4347 88.431 41.6267 88.303 41.84C86.9803 42.8213 85.615 43.4613 84.207 43.76C82.8417 44.0587 81.6683 43.8667 80.687 43.184C79.9617 43.0987 79.471 42.928 79.215 42.672C79.087 42.5867 78.9163 42.4373 78.703 42.224L74.607 41.968L72.879 41.136L71.279 37.104L71.599 35.76L70.191 30.128L72.879 25.648L75.055 23.664C75.8657 23.2373 76.8043 22.896 77.871 22.64C78.9377 22.384 80.0043 22.2133 81.071 22.128C82.1377 22 83.1617 21.9787 84.143 22.064C85.1243 22.1067 85.935 22.2347 86.575 22.448C86.575 23.1307 86.7883 23.5787 87.215 23.792C87.6417 24.0053 88.4737 24.24 89.711 24.496C90.1377 23.7707 90.351 22.896 90.351 21.872C90.351 20.8053 90.159 19.696 89.775 18.544L88.751 15.28C88.4097 15.152 87.8763 14.9387 87.151 14.64C86.4683 14.2987 85.8923 14.0213 85.423 13.808L82.671 14.256L79.855 14.832L79.215 13.808L79.919 12.144L80.367 11.12L81.263 10.928L84.207 10.416L86.831 11.312L89.711 10.864L95.279 12.528L97.647 16.112L98.479 26.288L98.287 29.488L99.695 36.976L100.527 37.36H102.511L103.343 39.6L102.447 41.072ZM78.959 30.64C78.7457 31.7493 78.7457 32.688 78.959 33.456C79.215 34.224 79.6203 34.864 80.175 35.376L81.135 37.36C81.903 37.616 82.6283 37.808 83.311 37.936C83.9937 38.064 84.6977 38.0853 85.423 38C86.191 37.872 86.9803 37.6373 87.791 37.296C88.6443 36.912 89.6257 36.3573 90.735 35.632L90.863 32.368L89.711 26.672C89.1137 26.4587 88.5803 26.352 88.111 26.352C87.6843 26.352 87.2577 26.3947 86.831 26.48C86.319 26.608 85.7217 26.7147 85.039 26.8C84.3563 26.8853 83.6523 26.992 82.927 27.12C82.2443 27.2053 81.6043 27.3333 81.007 27.504C80.4523 27.632 80.047 27.824 79.791 28.08L78.959 30.64ZM131.156 0.175999L136.979 0.559998C137.79 0.559998 138.11 1.008 137.94 1.904C137.598 2.58666 137.342 3.48266 137.172 4.592C137.001 5.65866 136.873 6.832 136.788 8.112C136.276 11.9093 135.892 15.2373 135.636 18.096C135.422 20.912 135.252 23.3013 135.124 25.264C134.996 27.2267 134.868 28.784 134.74 29.936C134.654 31.088 134.505 31.8773 134.292 32.304L134.804 37.68L134.548 38.704C134.676 39.0453 134.804 39.3867 134.932 39.728C135.102 40.0267 135.23 40.2827 135.316 40.496C135.486 40.8373 135.593 41.072 135.636 41.2C135.636 41.4133 135.465 41.648 135.124 41.904C134.825 42.16 134.441 42.416 133.972 42.672C133.502 42.928 132.99 43.184 132.436 43.44C131.881 43.6533 131.369 43.8453 130.9 44.016C130.516 43.9733 130.217 43.9093 130.004 43.824C129.833 43.7387 129.684 43.6107 129.556 43.44C129.428 43.2693 129.3 43.0347 129.172 42.736C129.086 42.4373 128.916 42.0533 128.66 41.584C128.233 41.4133 127.657 41.3707 126.932 41.456C126.206 41.4987 125.609 41.7333 125.14 42.16C124.969 42.6293 124.798 42.9493 124.628 43.12C124.5 43.2907 124.35 43.44 124.18 43.568C124.052 43.6533 123.881 43.7387 123.668 43.824C123.454 43.9093 123.198 44.08 122.9 44.336C121.79 44.4213 120.873 44.464 120.148 44.464C119.465 44.464 118.846 44.4213 118.292 44.336C117.78 44.208 117.289 44.0587 116.82 43.888C116.35 43.6747 115.817 43.3973 115.22 43.056C114.324 42.928 113.556 42.736 112.916 42.48C112.318 42.224 111.806 41.9467 111.38 41.648C110.996 41.3067 110.654 40.9653 110.356 40.624C110.057 40.24 109.78 39.8987 109.524 39.6L106.772 33.456L107.22 28.144C107.561 27.9307 107.817 27.7813 107.988 27.696C108.201 27.6107 108.372 27.5253 108.5 27.44C108.628 27.3547 108.734 27.248 108.82 27.12C108.948 26.9493 109.097 26.672 109.268 26.288C109.396 26.2453 109.481 26.1173 109.524 25.904C109.609 25.6907 109.63 25.456 109.588 25.2C109.588 24.944 109.545 24.688 109.46 24.432C109.374 24.176 109.246 23.984 109.076 23.856L111.252 20.528C111.38 20.528 111.614 20.4213 111.956 20.208C112.297 19.952 112.702 19.6747 113.172 19.376C113.641 19.0347 114.153 18.7147 114.708 18.416C115.305 18.1173 115.924 17.904 116.564 17.776C117.758 17.4347 118.676 17.264 119.316 17.264C119.956 17.2213 120.34 17.1787 120.468 17.136C120.724 17.3067 121.022 17.4347 121.364 17.52C121.705 17.6053 122.025 17.6907 122.324 17.776C122.665 17.8187 122.942 17.8613 123.156 17.904C123.412 17.904 123.561 17.904 123.604 17.904C123.646 17.904 123.71 18.032 123.796 18.288C123.881 18.544 123.988 18.864 124.116 19.248C124.244 19.632 124.414 20.016 124.628 20.4C124.841 20.784 125.097 21.104 125.396 21.36L126.548 21.744L127.572 21.36L127.828 18.224L127.508 15.664C127.721 15.1093 127.849 14.64 127.892 14.256C127.977 13.8293 127.998 13.4027 127.956 12.976C127.956 12.5493 127.934 12.1227 127.892 11.696C127.849 11.2267 127.828 10.6933 127.828 10.096C128.425 9.41333 128.766 8.752 128.852 8.112C128.98 7.472 128.681 6.81066 127.956 6.128L127.892 3.376L129.62 0.431999L131.156 0.175999ZM124.564 39.984L126.42 37.872C126.292 37.7013 126.334 37.3813 126.548 36.912C126.761 36.4427 126.825 35.9093 126.74 35.312C126.697 35.0133 126.676 34.352 126.676 33.328C126.718 32.304 126.761 31.2373 126.804 30.128C126.846 29.0187 126.889 28.0373 126.932 27.184C126.974 26.288 126.569 25.392 125.716 24.496L121.748 22.832L118.036 23.856L116.308 25.776C115.881 26.4587 115.54 27.0773 115.284 27.632C115.07 28.1867 114.921 28.7627 114.836 29.36C114.75 29.9147 114.729 30.4907 114.772 31.088C114.814 31.6853 114.9 32.3467 115.028 33.072C114.942 33.9253 115.07 34.608 115.412 35.12C115.753 35.632 116.265 36.0587 116.948 36.4L119.252 38.896L121.172 39.792C121.47 39.92 121.705 40.048 121.876 40.176C122.089 40.2613 122.281 40.3253 122.452 40.368C122.665 40.368 122.921 40.3467 123.22 40.304C123.561 40.2613 124.009 40.1547 124.564 39.984Z" fill="#FF1709" fill-opacity="0.9"/>
<path d="M142.873 41.36L147.433 40.68L151.793 39.4L152.833 37.72L152.393 36L151.353 34.72C151.059 34.5333 150.753 34.36 150.433 34.2C150.139 34.0133 149.833 33.88 149.513 33.8C149.219 33.6933 148.913 33.6533 148.593 33.68C148.299 33.68 148.006 33.7733 147.713 33.96L146.713 34.68L143.393 33.12L142.193 30.04L143.233 24.88L145.073 22.44C145.153 22.6267 145.313 22.6933 145.553 22.64C145.793 22.5867 146.033 22.48 146.273 22.32C146.513 22.16 146.713 21.9733 146.873 21.76C147.033 21.52 147.073 21.3067 146.993 21.12C147.446 20.9867 147.966 20.8533 148.553 20.72C149.139 20.56 149.646 20.3333 150.073 20.04L155.233 18.96L156.073 18.88L156.793 19.72L156.153 21.44L154.673 21.84L152.753 22.04L149.833 23.52L148.473 25.28C148.046 25.68 147.833 26.12 147.833 26.6C147.859 27.0533 147.979 27.5467 148.193 28.08C148.486 28.6933 148.699 29.0933 148.833 29.28C148.993 29.44 149.193 29.5867 149.433 29.72L151.793 30.52C152.059 30.7333 152.299 30.9067 152.513 31.04C152.753 31.1467 153.019 31.2133 153.313 31.24C153.606 31.2667 154.019 31.2933 154.553 31.32C155.113 31.3467 155.819 31.3867 156.673 31.44C156.913 31.8933 157.193 32.2933 157.513 32.64C157.833 32.96 158.139 33.3867 158.433 33.92L159.233 35.72L158.033 39.72L157.073 40.76L155.113 43.6H154.113C153.766 43.6 153.339 43.6133 152.833 43.64C152.353 43.64 151.779 43.64 151.113 43.64C150.446 43.64 149.859 43.7067 149.353 43.84C148.846 43.9733 148.393 44.12 147.993 44.28C147.593 44.4133 147.246 44.5333 146.953 44.64C146.659 44.7467 146.393 44.7867 146.153 44.76L144.713 44.32L142.313 44.72L141.473 43L141.713 42L142.873 41.36ZM167.992 45.72C167.806 45.72 167.472 45.7467 166.992 45.8C166.539 45.8267 166.206 45.84 165.992 45.84L165.112 45.92L164.432 45.44C164.406 45.04 164.432 44.5733 164.512 44.04C164.619 43.5067 164.672 43.0933 164.672 42.8C164.992 42.8 165.059 42.48 164.872 41.84C164.659 41.2 164.579 40.6933 164.632 40.32C164.659 39.8933 164.726 39.5333 164.832 39.24C164.939 38.92 164.952 38.6933 164.872 38.56C164.819 38.4 164.752 38.2267 164.672 38.04C164.592 37.8267 164.526 37.5867 164.472 37.32L164.952 34.72C165.059 34.32 165.126 33.88 165.152 33.4C165.179 32.92 165.192 32.44 165.192 31.96C165.219 31.4533 165.259 30.96 165.312 30.48C165.366 29.9733 165.472 29.4933 165.632 29.04L165.672 28C165.699 27.8933 165.766 27.7867 165.872 27.68C165.979 27.5733 166.072 27.48 166.152 27.4C166.259 27.2933 166.339 27.2 166.392 27.12C166.472 27.0133 166.472 26.8933 166.392 26.76C166.446 26.4667 166.352 26.2133 166.112 26C165.899 25.7867 165.659 25.6667 165.392 25.64C165.499 25.4533 165.579 25.1333 165.632 24.68C165.712 24.2 165.766 23.6667 165.792 23.08C165.846 22.4933 165.872 21.88 165.872 21.24C165.899 20.6 165.912 20.0133 165.912 19.48L166.752 19.04C167.206 19.0667 167.632 19.1467 168.032 19.28C168.459 19.3867 168.979 19.5067 169.592 19.64C169.912 19.6933 170.192 19.7467 170.432 19.8C170.672 19.8267 170.886 19.8667 171.072 19.92L171.632 20.68C171.632 20.7067 171.619 20.7733 171.592 20.88C171.592 20.9867 171.579 21.0933 171.552 21.2C171.552 21.3067 171.539 21.4133 171.512 21.52C171.512 21.6 171.499 21.64 171.472 21.64C171.312 21.6133 171.246 21.8533 171.272 22.36V26.36C171.112 26.52 170.979 26.7333 170.872 27C170.766 27.24 170.672 27.52 170.592 27.84C170.512 28.16 170.432 28.4933 170.352 28.84C170.299 29.16 170.246 29.4667 170.192 29.76C170.672 30.1867 171.086 30.32 171.432 30.16C171.806 30 172.059 29.7467 172.192 29.4L174.552 29.56H176.072L176.752 29.8C177.392 30.0133 177.966 30.24 178.472 30.48C179.006 30.72 179.486 30.9067 179.912 31.04L180.632 32.8L180.592 33.28C180.566 33.3067 180.632 33.64 180.792 34.28C180.952 34.8933 181.006 35.84 180.952 37.12C180.899 38.4 180.859 39.6 180.832 40.72C180.806 41.84 180.792 42.6133 180.792 43.04C180.792 43.0667 180.819 43.1733 180.872 43.36C180.952 43.5467 181.059 43.7467 181.192 43.96L180.912 44.4L180.152 44.76C179.779 44.7867 179.366 44.8533 178.912 44.96C178.486 45.0667 178.086 45.12 177.712 45.12C177.552 45.12 177.419 45.0667 177.312 44.96C177.206 44.8267 176.966 44.7733 176.592 44.8L176.032 44.32C176.086 43.9733 176.099 43.6933 176.072 43.48C176.046 43.24 176.006 43.04 175.952 42.88C175.899 42.6933 175.846 42.5333 175.792 42.4C175.739 42.2667 175.712 42.1333 175.712 42C175.739 41.8133 175.752 41.64 175.752 41.48C175.779 41.2933 175.806 41.0933 175.832 40.88C175.886 40.5333 175.939 40.1467 175.992 39.72C176.072 39.2933 176.166 38.8267 176.272 38.32C176.379 37.7067 176.406 37.16 176.352 36.68C176.326 36.1733 176.339 35.6933 176.392 35.24L174.992 32.4C174.886 32.3733 174.779 32.3467 174.672 32.32C174.566 32.2933 174.446 32.2533 174.312 32.2C173.886 32.0933 173.526 32.0667 173.232 32.12C172.939 32.1467 172.659 32.1733 172.392 32.2C172.392 32.28 172.246 32.2133 171.952 32C171.686 31.76 171.459 31.5333 171.272 31.32C170.819 30.9467 170.486 30.88 170.272 31.12C170.086 31.3333 169.926 31.6267 169.792 32C169.819 32.2933 169.859 32.4933 169.912 32.6C169.992 32.7067 170.072 32.7867 170.152 32.84C170.259 32.8667 170.352 32.8667 170.432 32.84C170.299 32.9467 170.192 33.1467 170.112 33.44C170.032 33.7067 169.966 34.0133 169.912 34.36C169.886 34.68 169.872 35.0267 169.872 35.4C169.899 35.7467 169.939 36.0667 169.992 36.36C170.046 36.68 170.006 37.1733 169.872 37.84C169.766 38.5067 169.739 39.36 169.792 40.4C169.792 40.8 169.779 41.2267 169.752 41.68C169.726 42.1067 169.699 42.5333 169.672 42.96C169.646 43.36 169.619 43.7333 169.592 44.08C169.566 44.4 169.552 44.6533 169.552 44.84V44.96C169.046 45.3867 168.526 45.64 167.992 45.72ZM204.297 31C204.377 31.4533 204.417 31.8533 204.417 32.2C204.417 32.52 204.404 32.84 204.377 33.16C204.377 33.4533 204.39 33.7467 204.417 34.04C204.47 34.3067 204.577 34.6 204.737 34.92C204.684 35.0267 204.55 35.24 204.337 35.56C204.15 35.8533 204.017 36.16 203.937 36.48C203.884 36.7733 203.844 37 203.817 37.16C203.79 37.32 203.764 37.4267 203.737 37.48C203.817 37.5333 203.884 37.64 203.937 37.8C203.964 37.9333 203.937 38.1067 203.857 38.32C203.777 38.5067 203.617 38.7733 203.377 39.12C202.897 39.76 202.63 40.3067 202.577 40.76C202.524 41.1867 202.417 41.52 202.257 41.76C202.204 41.8133 202.03 41.8933 201.737 42C201.47 42.1067 201.15 42.24 200.777 42.4C200.404 42.5333 200.03 42.6933 199.657 42.88C199.284 43.0667 198.99 43.2533 198.777 43.44C198.324 43.52 197.924 43.6267 197.577 43.76C197.23 43.8933 196.804 43.9867 196.297 44.04C195.817 44.1467 195.324 44.28 194.817 44.44C194.31 44.5733 194.03 44.64 193.977 44.64C192.724 44.64 191.977 44.68 191.737 44.76C191.524 44.84 191.27 44.88 190.977 44.88L187.337 43.56L185.657 41.12C185.657 40.48 185.63 39.9467 185.577 39.52C185.55 39.0667 185.51 38.68 185.457 38.36C185.404 38.0133 185.364 37.6933 185.337 37.4C185.31 37.1067 185.31 36.7733 185.337 36.4C185.417 36.32 185.537 36.1333 185.697 35.84C185.857 35.52 186.017 35.16 186.177 34.76C186.364 34.36 186.537 33.9467 186.697 33.52C186.884 33.0933 187.017 32.7333 187.097 32.44C187.31 31.8267 187.47 31.2933 187.577 30.84C187.684 30.36 187.764 29.9333 187.817 29.56C188.03 29.4267 188.204 29.28 188.337 29.12C188.47 28.96 188.604 28.8267 188.737 28.72C189.83 28.08 190.777 27.56 191.577 27.16C192.377 26.7333 193.124 26.4667 193.817 26.36L195.017 26.28C195.15 26.3067 195.27 26.3333 195.377 26.36C195.484 26.3867 195.59 26.4133 195.697 26.44C195.857 26.4933 196.004 26.5333 196.137 26.56C196.27 26.56 196.35 26.56 196.377 26.56L197.177 27.8C197.177 28.04 197.124 28.24 197.017 28.4C196.91 28.5333 197.017 28.6267 197.337 28.68C197.684 28.76 197.87 28.8133 197.897 28.84V28.88C198.324 28.88 198.764 28.7867 199.217 28.6C199.67 28.3867 200.124 28.28 200.577 28.28C200.684 28.28 200.87 28.3333 201.137 28.44C201.404 28.52 201.684 28.6267 201.977 28.76C202.27 28.8933 202.537 29.0267 202.777 29.16C203.044 29.2667 203.23 29.3467 203.337 29.4C203.284 29.8 203.297 30.08 203.377 30.24C203.457 30.4 203.564 30.52 203.697 30.6C203.83 30.6533 203.95 30.7067 204.057 30.76C204.19 30.7867 204.27 30.8667 204.297 31ZM197.137 41C197.537 40.7333 197.924 39.88 198.297 38.44C198.51 37.6667 198.684 37.0933 198.817 36.72C198.977 36.32 199.057 35.9467 199.057 35.6C199.057 35.0133 198.857 34.32 198.457 33.52C198.244 33.0933 198.084 32.7333 197.977 32.44C197.87 32.1467 197.79 31.8533 197.737 31.56C197.524 31.4533 197.404 31.2933 197.377 31.08C197.377 30.84 197.27 30.6 197.057 30.36C196.79 30.1467 196.63 30.0667 196.577 30.12C196.524 30.1733 196.47 30.2 196.417 30.2H196.057C195.844 30.2 195.55 30.24 195.177 30.32C194.83 30.4 194.55 30.5867 194.337 30.88C194.017 31.2267 193.737 31.5067 193.497 31.72C193.284 31.9067 193.164 32.0267 193.137 32.08C192.87 32.5867 192.63 33.0267 192.417 33.4C192.204 33.7467 192.03 34.0267 191.897 34.24L191.537 35.08C191.377 35.48 191.31 36.0133 191.337 36.68C191.39 36.7867 191.444 37.0267 191.497 37.4C191.55 37.7467 191.39 38.12 191.017 38.52C190.937 38.6 190.857 38.76 190.777 39C190.697 39.2133 190.644 39.4667 190.617 39.76C190.59 40.0533 190.617 40.3467 190.697 40.64C190.804 40.9333 191.004 41.1867 191.297 41.4C191.67 41.6667 192.057 41.9333 192.457 42.2C192.857 42.44 193.11 42.56 193.217 42.56H193.657C193.817 42.56 193.964 42.6 194.097 42.68L197.137 41ZM209.702 51.12V48.96L210.102 42.52V38.72L210.782 38C210.862 37.5467 210.862 36.8 210.782 35.76C210.729 34.6667 210.502 34.12 210.102 34.12C210.102 33.56 209.982 33.1067 209.742 32.76C209.502 32.3867 209.382 32.0533 209.382 31.76C209.569 31.5733 209.715 31.36 209.822 31.12C209.955 30.9067 210.062 30.64 210.142 30.32C210.249 29.9733 210.302 29.5733 210.302 29.12C210.302 29.0667 210.222 29.0933 210.062 29.2C210.009 29.2267 209.942 29.28 209.862 29.36L209.542 28.56C209.675 28.2133 209.809 27.8 209.942 27.32C210.075 26.84 210.182 26.3867 210.262 25.96L211.782 25.56C212.262 25.6933 212.822 25.8533 213.462 26.04C214.262 26.2533 214.915 26.4267 215.422 26.56C215.955 26.6667 216.355 26.6933 216.622 26.64V28.36L219.422 26.92L220.542 27.04C220.942 27.36 221.355 27.6133 221.782 27.8C222.235 27.96 222.582 28.0533 222.822 28.08C223.062 28.1067 223.289 28.1333 223.502 28.16C223.742 28.1867 223.942 28.2133 224.102 28.24C224.369 28.24 224.702 28.28 225.102 28.36C225.502 28.44 225.849 28.5067 226.142 28.56L226.622 29.28C226.782 29.68 226.915 30.04 227.022 30.36C227.155 30.68 227.275 30.9733 227.382 31.24C227.489 31.5067 227.595 31.76 227.702 32C227.835 32.24 227.995 32.48 228.182 32.72C228.155 32.88 228.129 33.0933 228.102 33.36C228.075 33.6 228.089 33.9067 228.142 34.28C228.169 34.8933 228.369 35.2533 228.742 35.36L228.622 36.16C228.249 36.6933 227.942 37.1867 227.702 37.64C227.489 38.0667 227.315 38.44 227.182 38.76C227.102 38.9467 227.022 39.1333 226.942 39.32C226.889 39.48 226.835 39.64 226.782 39.8C226.462 39.9067 225.969 40.08 225.302 40.32C224.635 40.5333 223.902 40.8 223.102 41.12C221.555 41.7067 220.649 42.08 220.382 42.24C220.169 42.4 219.969 42.6133 219.782 42.88L219.422 43.36C219.342 43.3867 219.222 43.4 219.062 43.4C218.929 43.4267 218.795 43.44 218.662 43.44C218.529 43.44 218.355 43.4533 218.142 43.48C217.715 43.5067 217.382 43.5333 217.142 43.56C216.902 43.5867 216.622 43.5867 216.302 43.56L215.662 45.28V46.48L215.702 48.12L215.902 48.52C215.955 48.6533 216.009 48.8 216.062 48.96C216.142 49.12 216.222 49.2667 216.302 49.4L215.502 50.92C215.422 50.9467 215.275 50.9867 215.062 51.04C214.929 51.0667 214.755 51.0667 214.542 51.04C214.355 51.04 214.142 51 213.902 50.92C213.635 50.8667 213.395 50.8667 213.182 50.92C212.969 51 212.769 51.0933 212.582 51.2C212.422 51.3333 212.262 51.4533 212.102 51.56C211.969 51.6667 211.849 51.72 211.742 51.72C211.609 51.72 211.462 51.7333 211.302 51.76C211.142 51.7867 210.955 51.8133 210.742 51.84L209.702 51.12ZM222.102 38.12L222.822 35.8C222.822 34.9467 222.835 34.2533 222.862 33.72C222.889 33.1867 222.875 32.6 222.822 31.96C222.715 31.8533 222.582 31.72 222.422 31.56C222.289 31.3733 222.142 31.2 221.982 31.04C221.849 30.88 221.715 30.7467 221.582 30.64C221.475 30.5333 221.409 30.48 221.382 30.48C221.329 30.48 221.209 30.4533 221.022 30.4C220.862 30.3467 220.675 30.2933 220.462 30.24C220.249 30.1867 220.035 30.1467 219.822 30.12C219.609 30.0667 219.449 30.0533 219.342 30.08C219.315 30.08 219.262 30.1333 219.182 30.24C219.129 30.32 219.049 30.4 218.942 30.48C218.862 30.56 218.742 30.6 218.582 30.6C218.422 30.5733 218.235 30.4533 218.022 30.24C217.729 29.9733 217.502 29.8667 217.342 29.92C217.182 29.9733 217.049 30.12 216.942 30.36C216.835 30.5733 216.742 30.8533 216.662 31.2C216.582 31.52 216.489 31.8133 216.382 32.08C216.275 32.2133 216.195 32.2933 216.142 32.32C216.089 32.32 216.062 32.4533 216.062 32.72C216.062 32.7467 216.129 32.8667 216.262 33.08C216.395 33.2933 216.529 33.5467 216.662 33.84L216.062 34.36L215.902 40.24L216.862 40.56H219.222L222.102 38.12Z" fill="#813904"/>
</svg>
